<?xml version="1.0" encoding="UTF-8" standalone="no"?>
<!-- Created with Inkscape (http://www.inkscape.org/) -->

<svg
   width="39.158283mm"
   height="39.158283mm"
   viewBox="0 0 39.158283 39.158283"
   version="1.1"
   id="svg1"
   inkscape:version="1.4 (e7c3feb100, 2024-10-09)"
   sodipodi:docname="qr-code.svg"
   xmlns:inkscape="http://www.inkscape.org/namespaces/inkscape"
   xmlns:sodipodi="http://sodipodi.sourceforge.net/DTD/sodipodi-0.dtd"
   xmlns="http://www.w3.org/2000/svg"
   xmlns:svg="http://www.w3.org/2000/svg">
  <sodipodi:namedview
     id="namedview1"
     pagecolor="#ffffff"
     bordercolor="#000000"
     borderopacity="0.25"
     inkscape:showpageshadow="2"
     inkscape:pageopacity="0.0"
     inkscape:pagecheckerboard="0"
     inkscape:deskcolor="#d1d1d1"
     inkscape:document-units="mm"
     inkscape:zoom="0.77415123"
     inkscape:cx="-0.64586863"
     inkscape:cy="0.64586863"
     inkscape:window-width="1290"
     inkscape:window-height="1032"
     inkscape:window-x="0"
     inkscape:window-y="0"
     inkscape:window-maximized="1"
     inkscape:current-layer="svg1" />
  <defs
     id="defs1" />
  <g
     inkscape:label="Layer 1"
     inkscape:groupmode="layer"
     id="layer1"
     transform="translate(-104.92411,-148.67084)" />
  <g
     inkscape:label="QR Code: https://github.com/caryfitz/here-it-is"
     transform="scale(0.264583)"
     id="g10">
    <rect
       x="0"
       y="0"
       width="148"
       height="148"
       style="fill:#ffffff;stroke:none"
       id="rect9" />
    <g
       style="fill:#000000;stroke:none"
       id="g9">
      <path
         d="m 131.6,132 h -3.2 c -0.221,0 -0.4,-0.179 -0.4,-0.4 v -3.2 c 0,-0.221 0.179,-0.4 0.4,-0.4 h 3.2 c 0.221,0 0.4,0.179 0.4,0.4 v 3.2 c 0,0.221 -0.179,0.4 -0.4,0.4 z m -12,0 h -7.2 c -0.221,0 -0.4,-0.179 -0.4,-0.4 v -3.2 c 0,-0.221 -0.179,-0.4 -0.4,-0.4 h -3.2 c -0.221,0 -0.4,-0.179 -0.4,-0.4 v -3.2 c 0,-0.221 0.179,-0.4 0.4,-0.4 h 3.2 c 0.221,0 0.4,-0.179 0.4,-0.4 v -7.2 c 0,-0.221 -0.179,-0.4 -0.4,-0.4 h -7.2 c -0.221,0 -0.4,0.179 -0.4,0.4 v 7.2 c 0,0.221 -0.179,0.4 -0.4,0.4 H 100 v -3.6 c 0,-0.221 -0.1791,-0.4 -0.4,-0.4 H 92 v -7.6 c 0,-0.221 -0.1791,-0.4 -0.4,-0.4 h -3.2 c -0.2209,0 -0.4,-0.179 -0.4,-0.4 v -3.2 c 0,-0.221 0.1791,-0.4 0.4,-0.4 h 7.2 c 0.2209,0 0.4,-0.179 0.4,-0.4 V 92 h 3.6 c 0.2209,0 0.4,0.1791 0.4,0.4 v 3.2 c 0,0.2209 0.179,0.4 0.4,0.4 h 3.2 c 0.221,0 0.4,-0.1791 0.4,-0.4 v -3.2 c 0,-0.2209 0.179,-0.4 0.4,-0.4 h 3.2 c 0.221,0 0.4,0.1791 0.4,0.4 v 3.2 c 0,0.2209 0.179,0.4 0.4,0.4 h 3.2 c 0.221,0 0.4,-0.1791 0.4,-0.4 V 88 h 8 v 3.6 c 0,0.2209 -0.179,0.4 -0.4,0.4 h -3.2 c -0.221,0 -0.4,0.1791 -0.4,0.4 v 3.2 c 0,0.2209 0.179,0.4 0.4,0.4 h 3.2 c 0.221,0 0.4,0.1791 0.4,0.4 v 3.2 c 0,0.2209 0.179,0.4 0.4,0.4 h 3.6 v 3.6 c 0,0.221 -0.179,0.4 -0.4,0.4 h -7.2 c -0.221,0 -0.4,0.179 -0.4,0.4 v 7.2 c 0,0.221 0.179,0.4 0.4,0.4 h 3.2 c 0.221,0 0.4,0.179 0.4,0.4 v 3.2 c 0,0.221 0.179,0.4 0.4,0.4 h 3.2 c 0.221,0 0.4,0.179 0.4,0.4 v 3.6 h -7.6 c -0.221,0 -0.4,0.179 -0.4,0.4 v 3.2 c 0,0.221 0.179,0.4 0.4,0.4 h 3.2 c 0.221,0 0.4,0.179 0.4,0.4 v 7.2 c 0,0.221 -0.179,0.4 -0.4,0.4 z m -20,0 h -3.2 c -0.2209,0 -0.4,-0.179 -0.4,-0.4 v -7.2 c 0,-0.221 0.1791,-0.4 0.4,-0.4 h 3.6 v 7.6 c 0,0.221 -0.1791,0.4 -0.4,0.4 z m -16,0 h -7.2 c -0.2209,0 -0.4,-0.179 -0.4,-0.4 v -3.2 c 0,-0.221 0.1791,-0.4 0.4,-0.4 h 3.2 c 0.2209,0 0.4,-0.179 0.4,-0.4 V 124 h 4 v 7.6 c 0,0.221 -0.1791,0.4 -0.4,0.4 z m -12,0 H 56.4 C 56.1791,132 56,131.821 56,131.6 V 120 h 7.6 c 0.2209,0 0.4,0.179 0.4,0.4 v 3.2 c 0,0.221 -0.1791,0.4 -0.4,0.4 h -3.2 c -0.2209,0 -0.4,0.179 -0.4,0.4 v 3.2 c 0,0.221 0.1791,0.4 0.4,0.4 h 7.2 c 0.2209,0 0.4,-0.179 0.4,-0.4 v -3.2 c 0,-0.221 0.1791,-0.4 0.4,-0.4 h 3.2 c 0.2209,0 0.4,0.179 0.4,0.4 v 7.2 c 0,0.221 -0.1791,0.4 -0.4,0.4 z m -20,0 h -3.2 c -0.2209,0 -0.4,-0.179 -0.4,-0.4 v -11.2 c 0,-0.221 0.1791,-0.4 0.4,-0.4 H 52 v 11.6 c 0,0.221 -0.1791,0.4 -0.4,0.4 z m -8,0 H 16.4 c -0.2209,0 -0.4,-0.179 -0.4,-0.4 v -27.2 c 0,-0.221 0.1791,-0.4 0.4,-0.4 h 27.2 c 0.2209,0 0.4,0.179 0.4,0.4 v 27.2 c 0,0.221 -0.1791,0.4 -0.4,0.4 z M 40,127.6 V 108.4 C 40,108.179 39.8209,108 39.6,108 H 20.4 c -0.2209,0 -0.4,0.179 -0.4,0.4 v 19.2 c 0,0.221 0.1791,0.4 0.4,0.4 h 19.2 c 0.2209,0 0.4,-0.179 0.4,-0.4 z m 91.6,-3.6 h -7.2 c -0.221,0 -0.4,-0.179 -0.4,-0.4 V 120 h 3.6 c 0.221,0 0.4,-0.179 0.4,-0.4 V 100 h 3.6 c 0.221,0 0.4,0.179 0.4,0.4 v 23.2 c 0,0.221 -0.179,0.4 -0.4,0.4 z m -40,0 H 84 v -3.6 c 0,-0.221 -0.1791,-0.4 -0.4,-0.4 h -3.2 c -0.2209,0 -0.4,0.179 -0.4,0.4 v 3.6 h -3.6 c -0.2209,0 -0.4,-0.179 -0.4,-0.4 v -3.2 C 76,120.179 75.8209,120 75.6,120 H 68.4 C 68.1791,120 68,119.821 68,119.6 V 112 h 3.6 c 0.2209,0 0.4,-0.179 0.4,-0.4 v -3.2 c 0,-0.221 -0.1791,-0.4 -0.4,-0.4 h -3.2 c -0.2209,0 -0.4,0.179 -0.4,0.4 V 112 H 56 v -3.6 c 0,-0.221 0.1791,-0.4 0.4,-0.4 h 7.2 c 0.2209,0 0.4,-0.179 0.4,-0.4 v -7.2 c 0,-0.221 -0.1791,-0.4 -0.4,-0.4 h -3.2 c -0.2209,0 -0.4,0.179 -0.4,0.4 v 3.2 c 0,0.221 -0.1791,0.4 -0.4,0.4 H 56.4 C 56.1791,104 56,103.821 56,103.6 V 96 H 67.6 C 67.8209,96 68,95.8209 68,95.6 V 92.4 C 68,92.1791 68.1791,92 68.4,92 h 3.2 c 0.2209,0 0.4,0.1791 0.4,0.4 v 7.2 c 0,0.2209 -0.1791,0.4 -0.4,0.4 h -3.2 c -0.2209,0 -0.4,0.179 -0.4,0.4 v 3.2 c 0,0.221 0.1791,0.4 0.4,0.4 h 7.2 c 0.2209,0 0.4,-0.179 0.4,-0.4 V 96.4 C 76,96.1791 76.1791,96 76.4,96 h 3.2 C 79.8209,96 80,95.8209 80,95.6 V 92 h 3.6 c 0.2209,0 0.4,0.1791 0.4,0.4 v 7.2 c 0,0.2209 0.1791,0.4 0.4,0.4 H 88 v 3.6 c 0,0.221 -0.1791,0.4 -0.4,0.4 h -3.2 c -0.2209,0 -0.4,0.179 -0.4,0.4 v 3.2 c 0,0.221 -0.1791,0.4 -0.4,0.4 h -3.2 c -0.2209,0 -0.4,0.179 -0.4,0.4 v 7.2 c 0,0.221 0.1791,0.4 0.4,0.4 h 7.2 c 0.2209,0 0.4,0.179 0.4,0.4 v 3.2 c 0,0.221 0.1791,0.4 0.4,0.4 H 92 v 3.6 c 0,0.221 -0.1791,0.4 -0.4,0.4 z m -56,0 H 24.4 c -0.2209,0 -0.4,-0.179 -0.4,-0.4 v -11.2 c 0,-0.221 0.1791,-0.4 0.4,-0.4 h 11.2 c 0.2209,0 0.4,0.179 0.4,0.4 v 11.2 c 0,0.221 -0.1791,0.4 -0.4,0.4 z m 20,-4 H 52 v -8 h 4 v 8 z m 56.4,-8.4 v -11.2 c 0,-0.221 -0.179,-0.4 -0.4,-0.4 h -11.2 c -0.221,0 -0.4,0.179 -0.4,0.4 v 11.2 c 0,0.221 0.179,0.4 0.4,0.4 h 11.2 c 0.221,0 0.4,-0.179 0.4,-0.4 z M 51.6,112 h -3.2 c -0.2209,0 -0.4,-0.179 -0.4,-0.4 v -3.2 c 0,-0.221 0.1791,-0.4 0.4,-0.4 h 3.2 c 0.2209,0 0.4,0.179 0.4,0.4 v 3.6 z m 56,-4 h -3.2 c -0.221,0 -0.4,-0.179 -0.4,-0.4 v -3.2 c 0,-0.221 0.179,-0.4 0.4,-0.4 h 3.2 c 0.221,0 0.4,0.179 0.4,0.4 v 3.2 c 0,0.221 -0.179,0.4 -0.4,0.4 z m -56,-4 h -3.2 c -0.2209,0 -0.4,-0.179 -0.4,-0.4 v -3.2 c 0,-0.221 0.1791,-0.4 0.4,-0.4 h 3.2 c 0.2209,0 0.4,0.179 0.4,0.4 v 3.2 c 0,0.221 -0.1791,0.4 -0.4,0.4 z m 76,-4 H 124 v -3.6 c 0,-0.2209 0.179,-0.4 0.4,-0.4 h 3.2 c 0.221,0 0.4,0.1791 0.4,0.4 v 3.6 z m -36,0 H 88 V 96.4 C 88,96.1791 88.1791,96 88.4,96 h 3.2 c 0.2209,0 0.4,0.1791 0.4,0.4 v 3.2 c 0,0.2209 -0.1791,0.4 -0.4,0.4 z m -48,0 H 40.4 C 40.1791,100 40,99.8209 40,99.6 V 96.4 C 40,96.1791 40.1791,96 40.4,96 h 3.2 c 0.2209,0 0.4,0.1791 0.4,0.4 v 3.2 c 0,0.2209 -0.1791,0.4 -0.4,0.4 z m -12,0 H 16.4 C 16.1791,100 16,99.8209 16,99.6 V 96.4 C 16,96.1791 16.1791,96 16.4,96 H 27.6 C 27.8209,96 28,95.8209 28,95.6 V 84 h 3.6 C 31.8209,84 32,83.8209 32,83.6 V 80.4 C 32,80.1791 31.8209,80 31.6,80 H 28.4 C 28.1791,80 28,80.1791 28,80.4 V 84 H 24.4 C 24.1791,84 24,83.8209 24,83.6 V 80.4 C 24,80.1791 23.8209,80 23.6,80 H 20.4 C 20.1791,80 20,80.1791 20,80.4 v 3.2 C 20,83.8209 19.8209,84 19.6,84 H 16.4 C 16.1791,84 16,83.8209 16,83.6 V 76.4 C 16,76.1791 16.1791,76 16.4,76 h 7.2 C 23.8209,76 24,75.8209 24,75.6 V 68.4 C 24,68.1791 24.1791,68 24.4,68 h 3.2 C 27.8209,68 28,67.8209 28,67.6 V 60.4 C 28,60.1791 28.1791,60 28.4,60 h 7.2 C 35.8209,60 36,59.8209 36,59.6 V 56.4 C 36,56.1791 35.8209,56 35.6,56 H 28.4 C 28.1791,56 28,55.8209 28,55.6 V 52 h 7.6 C 35.8209,52 36,51.8209 36,51.6 V 48.4 C 36,48.1791 36.1791,48 36.4,48 h 7.2 c 0.2209,0 0.4,0.1791 0.4,0.4 V 52 H 40.4 C 40.1791,52 40,52.1791 40,52.4 v 3.2 c 0,0.2209 0.1791,0.4 0.4,0.4 h 3.2 C 43.8209,56 44,55.8209 44,55.6 V 52 h 3.6 C 47.8209,52 48,51.8209 48,51.6 V 32.4 C 48,32.1791 48.1791,32 48.4,32 h 7.2 C 55.8209,32 56,31.8209 56,31.6 V 24.4 C 56,24.1791 55.8209,24 55.6,24 H 48.4 C 48.1791,24 48,23.8209 48,23.6 V 16.4 C 48,16.1791 48.1791,16 48.4,16 h 3.2 c 0.2209,0 0.4,0.1791 0.4,0.4 v 3.2 c 0,0.2209 0.1791,0.4 0.4,0.4 H 60 v 3.6 c 0,0.2209 0.1791,0.4 0.4,0.4 h 3.2 C 63.8209,24 64,23.8209 64,23.6 V 20.4 C 64,20.1791 63.8209,20 63.6,20 H 60 V 16.4 C 60,16.1791 60.1791,16 60.4,16 h 7.2 c 0.2209,0 0.4,0.1791 0.4,0.4 v 7.2 c 0,0.2209 0.1791,0.4 0.4,0.4 h 3.2 c 0.2209,0 0.4,0.1791 0.4,0.4 v 3.2 c 0,0.2209 0.1791,0.4 0.4,0.4 h 3.2 C 75.8209,28 76,27.8209 76,27.6 V 24.4 C 76,24.1791 76.1791,24 76.4,24 H 80 v 8 H 72.4 C 72.1791,32 72,32.1791 72,32.4 V 40 H 68 V 28.4 C 68,28.1791 67.8209,28 67.6,28 H 60.4 C 60.1791,28 60,28.1791 60,28.4 v 3.2 c 0,0.2209 0.1791,0.4 0.4,0.4 h 3.2 c 0.2209,0 0.4,0.1791 0.4,0.4 V 40 H 60 V 36.4 C 60,36.1791 59.8209,36 59.6,36 H 52.4 C 52.1791,36 52,36.1791 52,36.4 v 11.2 c 0,0.2209 0.1791,0.4 0.4,0.4 h 3.2 C 55.8209,48 56,47.8209 56,47.6 V 40.4 C 56,40.1791 56.1791,40 56.4,40 H 60 v 3.6 c 0,0.2209 0.1791,0.4 0.4,0.4 h 3.2 C 63.8209,44 64,43.8209 64,43.6 V 40 h 4 v 8 H 60.4 C 60.1791,48 60,48.1791 60,48.4 V 56 H 52.4 C 52.1791,56 52,56.1791 52,56.4 V 60 H 40.4 C 40.1791,60 40,60.1791 40,60.4 V 64 H 36.4 C 36.1791,64 36,64.1791 36,64.4 V 68 H 32.4 C 32.1791,68 32,68.1791 32,68.4 v 3.2 C 32,71.8209 31.8209,72 31.6,72 H 28.4 C 28.1791,72 28,72.1791 28,72.4 v 3.2 c 0,0.2209 0.1791,0.4 0.4,0.4 h 7.2 c 0.2209,0 0.4,0.1791 0.4,0.4 v 3.2 c 0,0.2209 0.1791,0.4 0.4,0.4 H 44 v 4 H 36.4 C 36.1791,84 36,84.1791 36,84.4 V 95.6 C 36,95.8209 35.8209,96 35.6,96 H 32.4 C 32.1791,96 32,96.1791 32,96.4 v 3.2 c 0,0.2209 -0.1791,0.4 -0.4,0.4 z m 24,-4 H 52.4 C 52.1791,96 52,95.8209 52,95.6 V 92.4 C 52,92.1791 52.1791,92 52.4,92 H 56 v 4 z m 76,-4 h -3.2 C 128.179,92 128,91.8209 128,91.6 V 88.4 C 128,88.1791 127.821,88 127.6,88 H 120 v -3.6 c 0,-0.2209 0.179,-0.4 0.4,-0.4 h 7.2 c 0.221,0 0.4,-0.1791 0.4,-0.4 v -3.2 c 0,-0.2209 0.179,-0.4 0.4,-0.4 h 3.2 c 0.221,0 0.4,0.1791 0.4,0.4 v 11.2 c 0,0.2209 -0.179,0.4 -0.4,0.4 z m -36,0 H 88.4 C 88.1791,92 88,91.8209 88,91.6 V 88.4 C 88,88.1791 87.8209,88 87.6,88 H 84.4 C 84.1791,88 84,87.8209 84,87.6 V 84 h 12 v 8 z m -16,0 H 76.4 C 76.1791,92 76,91.8209 76,91.6 V 88.4 C 76,88.1791 75.8209,88 75.6,88 H 68.4 C 68.1791,88 68,87.8209 68,87.6 V 80 h 3.6 C 71.8209,80 72,79.8209 72,79.6 V 76.4 C 72,76.1791 71.8209,76 71.6,76 H 68.4 C 68.1791,76 68,76.1791 68,76.4 V 80 h -8 v -4 h 3.6 C 63.8209,76 64,75.8209 64,75.6 V 68.4 C 64,68.1791 63.8209,68 63.6,68 H 60.4 C 60.1791,68 60,67.8209 60,67.6 V 64.4 C 60,64.1791 60.1791,64 60.4,64 h 7.2 C 67.8209,64 68,63.8209 68,63.6 V 60.4 C 68,60.1791 68.1791,60 68.4,60 h 3.2 c 0.2209,0 0.4,0.1791 0.4,0.4 v 7.2 C 72,67.8209 71.8209,68 71.6,68 H 68.4 C 68.1791,68 68,68.1791 68,68.4 v 3.2 c 0,0.2209 0.1791,0.4 0.4,0.4 h 7.2 C 75.8209,72 76,71.8209 76,71.6 V 68.4 C 76,68.1791 76.1791,68 76.4,68 h 3.2 C 79.8209,68 80,67.8209 80,67.6 V 64.4 C 80,64.1791 80.1791,64 80.4,64 h 3.2 c 0.2209,0 0.4,0.1791 0.4,0.4 V 72 H 80.4 C 80.1791,72 80,72.1791 80,72.4 V 76 H 76.4 C 76.1791,76 76,76.1791 76,76.4 v 7.2 c 0,0.2209 0.1791,0.4 0.4,0.4 H 80 v 8 z m -16,0 H 56 v -4 h 7.6 c 0.2209,0 0.4,0.1791 0.4,0.4 v 3.2 c 0,0.2209 -0.1791,0.4 -0.4,0.4 z m -16,0 H 40.4 C 40.1791,92 40,91.8209 40,91.6 V 88.4 C 40,88.1791 40.1791,88 40.4,88 h 3.2 C 43.8209,88 44,87.8209 44,87.6 V 84 h 4 v 7.6 c 0,0.2209 -0.1791,0.4 -0.4,0.4 z m -24,0 H 16.4 C 16.1791,92 16,91.8209 16,91.6 V 88.4 C 16,88.1791 16.1791,88 16.4,88 h 7.2 c 0.2209,0 0.4,0.1791 0.4,0.4 v 3.2 c 0,0.2209 -0.1791,0.4 -0.4,0.4 z m 88,-4 h -7.2 C 104.179,88 104,87.8209 104,87.6 V 84.4 C 104,84.1791 103.821,84 103.6,84 H 96 V 80.4 C 96,80.1791 95.8209,80 95.6,80 H 92.4 C 92.1791,80 92,79.8209 92,79.6 V 72.4 C 92,72.1791 91.8209,72 91.6,72 H 88 V 68.4 C 88,68.1791 88.1791,68 88.4,68 h 3.2 C 91.8209,68 92,67.8209 92,67.6 V 64.4 C 92,64.1791 91.8209,64 91.6,64 H 88.4 C 88.1791,64 88,63.8209 88,63.6 V 60.4 C 88,60.1791 87.8209,60 87.6,60 H 84.4 C 84.1791,60 84,59.8209 84,59.6 V 56.4 C 84,56.1791 83.8209,56 83.6,56 H 80.4 C 80.1791,56 80,56.1791 80,56.4 v 3.2 C 80,59.8209 79.8209,60 79.6,60 H 76.4 C 76.1791,60 76,59.8209 76,59.6 V 52.4 C 76,52.1791 75.8209,52 75.6,52 H 72.4 C 72.1791,52 72,52.1791 72,52.4 v 3.2 C 72,55.8209 71.8209,56 71.6,56 H 68.4 C 68.1791,56 68,55.8209 68,55.6 V 48 h 3.6 C 71.8209,48 72,47.8209 72,47.6 V 40 h 3.6 c 0.2209,0 0.4,0.1791 0.4,0.4 v 7.2 c 0,0.2209 0.1791,0.4 0.4,0.4 H 80 v 3.6 c 0,0.2209 0.1791,0.4 0.4,0.4 h 7.2 c 0.2209,0 0.4,0.1791 0.4,0.4 v 3.2 c 0,0.2209 0.1791,0.4 0.4,0.4 h 3.2 C 91.8209,56 92,55.8209 92,55.6 V 48.4 C 92,48.1791 92.1791,48 92.4,48 h 23.2 c 0.221,0 0.4,0.1791 0.4,0.4 v 3.2 c 0,0.2209 -0.179,0.4 -0.4,0.4 h -3.2 c -0.221,0 -0.4,0.1791 -0.4,0.4 v 3.2 c 0,0.2209 0.179,0.4 0.4,0.4 H 124 v 3.6 c 0,0.2209 -0.179,0.4 -0.4,0.4 h -3.2 c -0.221,0 -0.4,0.1791 -0.4,0.4 v 3.2 c 0,0.2209 -0.179,0.4 -0.4,0.4 H 112 V 60.4 C 112,60.1791 111.821,60 111.6,60 H 104 V 56.4 C 104,56.1791 103.821,56 103.6,56 H 96.4 C 96.1791,56 96,56.1791 96,56.4 v 7.2 c 0,0.2209 0.1791,0.4 0.4,0.4 h 3.6 v 8 H 96.4 C 96.1791,72 96,72.1791 96,72.4 v 3.2 c 0,0.2209 0.1791,0.4 0.4,0.4 h 3.6 v 3.6 c 0,0.2209 0.179,0.4 0.4,0.4 h 3.2 c 0.221,0 0.4,-0.1791 0.4,-0.4 V 76.4 C 104,76.1791 103.821,76 103.6,76 H 100 v -4 h 3.6 c 0.221,0 0.4,-0.1791 0.4,-0.4 V 64 h 8 v 7.6 c 0,0.2209 0.179,0.4 0.4,0.4 h 3.2 c 0.221,0 0.4,0.1791 0.4,0.4 v 3.2 c 0,0.2209 -0.179,0.4 -0.4,0.4 h -3.2 c -0.221,0 -0.4,0.1791 -0.4,0.4 v 3.2 c 0,0.2209 -0.179,0.4 -0.4,0.4 h -3.2 c -0.221,0 -0.4,0.1791 -0.4,0.4 v 3.2 c 0,0.2209 0.179,0.4 0.4,0.4 h 3.2 c 0.221,0 0.4,0.1791 0.4,0.4 V 88 Z m -56,0 H 52.4 C 52.1791,88 52,87.8209 52,87.6 V 84 h 4 v 4 z m 28,-4 H 80 v -8 h 4 v 8 z m -24,0 H 56 v -4 h 4 v 3.6 c 0,0.2209 -0.1791,0.4 -0.4,0.4 z m -8,0 H 48 v -4 h 4 v 4 z m 4,-4 H 52 V 76.4 C 52,76.1791 51.8209,76 51.6,76 H 48 V 72.4 C 48,72.1791 47.8209,72 47.6,72 H 44 v -4 h 7.6 C 51.8209,68 52,67.8209 52,67.6 V 60 h 3.6 c 0.2209,0 0.4,0.1791 0.4,0.4 v 11.2 c 0,0.2209 0.1791,0.4 0.4,0.4 h 3.2 c 0.2209,0 0.4,0.1791 0.4,0.4 V 76 H 56.4 C 56.1791,76 56,76.1791 56,76.4 V 80 Z m -8,0 H 44 v -4 h 4 v 4 z m 84,-4 h -3.2 c -0.221,0 -0.4,-0.1791 -0.4,-0.4 v -3.2 c 0,-0.2209 -0.179,-0.4 -0.4,-0.4 h -3.2 c -0.221,0 -0.4,-0.1791 -0.4,-0.4 v -3.2 c 0,-0.2209 0.179,-0.4 0.4,-0.4 h 3.2 c 0.221,0 0.4,-0.1791 0.4,-0.4 v -3.2 c 0,-0.2209 0.179,-0.4 0.4,-0.4 h 3.2 c 0.221,0 0.4,0.1791 0.4,0.4 v 11.2 c 0,0.2209 -0.179,0.4 -0.4,0.4 z m -44,0 H 84 v -4 h 4 v 3.6 c 0,0.2209 -0.1791,0.4 -0.4,0.4 z m -44,0 H 40.4 C 40.1791,76 40,75.8209 40,75.6 V 72 h 4 v 4 z m -4,-4 H 36.4 C 36.1791,72 36,71.8209 36,71.6 V 68 h 4 v 4 z m 4,-4 H 40 v -4 h 3.6 c 0.2209,0 0.4,0.1791 0.4,0.4 V 68 Z m 60,-4 H 100 v -3.6 c 0,-0.2209 0.179,-0.4 0.4,-0.4 h 3.6 v 4 z m -84,0 H 16.4 C 16.1791,64 16,63.8209 16,63.6 V 56.4 C 16,56.1791 16.1791,56 16.4,56 h 3.2 C 19.8209,56 20,55.8209 20,55.6 V 52.4 C 20,52.1791 19.8209,52 19.6,52 H 16.4 C 16.1791,52 16,51.8209 16,51.6 V 48.4 C 16,48.1791 16.1791,48 16.4,48 h 11.2 c 0.2209,0 0.4,0.1791 0.4,0.4 V 52 H 24.4 C 24.1791,52 24,52.1791 24,52.4 v 7.2 C 24,59.8209 23.8209,60 23.6,60 H 20.4 C 20.1791,60 20,60.1791 20,60.4 v 3.2 c 0,0.2209 -0.1791,0.4 -0.4,0.4 z m 112,-4 h -3.2 C 128.179,60 128,59.8209 128,59.6 V 56.4 C 128,56.1791 127.821,56 127.6,56 H 124 v -7.6 c 0,-0.2209 0.179,-0.4 0.4,-0.4 h 7.2 c 0.221,0 0.4,0.1791 0.4,0.4 v 11.2 c 0,0.2209 -0.179,0.4 -0.4,0.4 z m -68,0 H 60.4 C 60.1791,60 60,59.8209 60,59.6 V 56 h 3.6 c 0.2209,0 0.4,0.1791 0.4,0.4 v 3.2 c 0,0.2209 -0.1791,0.4 -0.4,0.4 z m 20,-12 H 80 V 40.4 C 80,40.1791 80.1791,40 80.4,40 H 84 v 7.6 c 0,0.2209 -0.1791,0.4 -0.4,0.4 z m 48,-4 H 104.4 C 104.179,44 104,43.8209 104,43.6 V 16.4 c 0,-0.2209 0.179,-0.4 0.4,-0.4 h 27.2 c 0.221,0 0.4,0.1791 0.4,0.4 v 27.2 c 0,0.2209 -0.179,0.4 -0.4,0.4 z m -32,0 H 96.4 C 96.1791,44 96,43.8209 96,43.6 V 36.4 C 96,36.1791 96.1791,36 96.4,36 h 3.2 c 0.2209,0 0.4,0.1791 0.4,0.4 v 7.2 c 0,0.2209 -0.1791,0.4 -0.4,0.4 z m -8,0 H 88.4 C 88.1791,44 88,43.8209 88,43.6 V 40.4 C 88,40.1791 87.8209,40 87.6,40 H 84 V 36.4 C 84,36.1791 83.8209,36 83.6,36 H 80.4 C 80.1791,36 80,35.8209 80,35.6 V 32 h 3.6 C 83.8209,32 84,31.8209 84,31.6 V 24 h 3.6 c 0.2209,0 0.4,0.1791 0.4,0.4 v 3.2 c 0,0.2209 0.1791,0.4 0.4,0.4 h 3.2 c 0.2209,0 0.4,0.1791 0.4,0.4 v 15.2 c 0,0.2209 -0.1791,0.4 -0.4,0.4 z m -48,0 H 16.4 C 16.1791,44 16,43.8209 16,43.6 V 16.4 C 16,16.1791 16.1791,16 16.4,16 h 27.2 c 0.2209,0 0.4,0.1791 0.4,0.4 V 43.6 C 44,43.8209 43.8209,44 43.6,44 Z M 128,39.6 V 20.4 c 0,-0.2209 -0.179,-0.4 -0.4,-0.4 h -19.2 c -0.221,0 -0.4,0.1791 -0.4,0.4 v 19.2 c 0,0.2209 0.179,0.4 0.4,0.4 h 19.2 c 0.221,0 0.4,-0.1791 0.4,-0.4 z m -88,0 V 20.4 C 40,20.1791 39.8209,20 39.6,20 H 20.4 C 20.1791,20 20,20.1791 20,20.4 v 19.2 c 0,0.2209 0.1791,0.4 0.4,0.4 H 39.6 C 39.8209,40 40,39.8209 40,39.6 Z M 123.6,36 H 112.4 C 112.179,36 112,35.8209 112,35.6 V 24.4 c 0,-0.2209 0.179,-0.4 0.4,-0.4 h 11.2 c 0.221,0 0.4,0.1791 0.4,0.4 v 11.2 c 0,0.2209 -0.179,0.4 -0.4,0.4 z m -88,0 H 24.4 C 24.1791,36 24,35.8209 24,35.6 V 24.4 C 24,24.1791 24.1791,24 24.4,24 h 11.2 c 0.2209,0 0.4,0.1791 0.4,0.4 v 11.2 c 0,0.2209 -0.1791,0.4 -0.4,0.4 z m 64,-4 H 96.4 C 96.1791,32 96,31.8209 96,31.6 V 24.4 C 96,24.1791 96.1791,24 96.4,24 h 3.2 c 0.2209,0 0.4,0.1791 0.4,0.4 v 7.2 c 0,0.2209 -0.1791,0.4 -0.4,0.4 z m -16,-8 H 80 V 20.4 C 80,20.1791 80.1791,20 80.4,20 h 3.2 c 0.2209,0 0.4,0.1791 0.4,0.4 V 24 Z m -8,-4 H 72.4 C 72.1791,20 72,19.8209 72,19.6 V 16.4 C 72,16.1791 72.1791,16 72.4,16 h 3.2 c 0.2209,0 0.4,0.1791 0.4,0.4 v 3.2 c 0,0.2209 -0.1791,0.4 -0.4,0.4 z"
         id="path9" />
    </g>
  </g>
</svg>
